<svg width="266" height="72" viewBox="0 0 266 72" fill="none" xmlns="http://www.w3.org/2000/svg">
<path d="M57.2861 0C65.8071 0 72.7148 6.90775 72.7148 15.4287V28.4922H65.5156C61.5396 28.4925 58.3157 31.7147 58.3154 35.6885C58.3155 39.5384 61.3414 42.6822 65.1455 42.875L65.5156 42.8848H72.7148V56.5713C72.7148 65.0923 65.8071 72 57.2861 72H42.7705C43.4297 71.1063 43.9366 70.3127 44.2939 69.7021C46.4711 65.984 47.6774 61.3772 48.0566 59.7744C48.1425 59.4103 48.0091 59.0484 47.7158 58.8047L40.7041 52.9707C40.4405 52.7501 40.0372 52.845 39.9395 53.1689C39.5425 54.4734 38.521 57.478 36.6963 60.5225C33.26 66.2705 29.426 68.3604 25.5068 67.8301C21.3154 67.2622 18.182 62.3966 20.1934 50.3906C22.2877 37.8716 25.602 31.407 29.2959 28.8984C32.7854 26.5276 35.2149 28.5971 34.5723 33.1924C34.0065 37.2401 32.2383 41.1592 31.6309 42.4238C31.5331 42.6245 31.6869 42.8458 31.918 42.8486L48.6279 43.0771C48.9893 43.0829 49.3092 42.8708 49.4336 42.5439C49.9402 41.2078 51.2111 37.6534 51.5547 34.6807C52.1412 29.6293 52.295 18.9699 39.1631 15.4121C24.417 11.4161 11.608 19.6038 5.70117 33.3184C3.12022 39.314 0.775071 48.2046 0.716797 56.7754C0.715917 56.7075 0.714844 56.6394 0.714844 56.5713V15.4287C0.714844 6.90775 7.62259 0 16.1436 0H57.2861ZM65.5156 32.0898C67.5036 32.0899 69.116 33.7016 69.1162 35.6885C69.116 37.6754 67.5036 39.286 65.5156 39.2861C63.5276 39.286 61.9162 37.6753 61.916 35.6885C61.9162 33.7016 63.5276 32.09 65.5156 32.0898Z" fill="#1C2024"/>
<path d="M127.188 49.7269C127.188 49.7269 126.731 50.2924 126.183 50.688C123.125 52.896 119.075 54 114.032 54C110.25 54 106.94 53.296 104.103 51.888C101.267 50.48 99.076 48.416 97.5315 45.696C95.9871 42.976 95.2148 39.744 95.2148 36C95.2148 32.448 95.9556 29.328 97.437 26.64C98.9499 23.92 101.125 21.808 103.962 20.304C106.798 18.768 110.139 18 113.985 18C123.346 18 129.035 21.92 131.053 29.76H123.259C122.471 27.488 121.597 26.768 120.084 25.776C118.602 24.784 116.569 24.288 113.985 24.288C110.612 24.288 107.949 25.328 105.995 27.408C104.04 29.488 103.063 32.352 103.063 36C103.063 39.68 104.04 42.56 105.995 44.64C107.949 46.688 110.659 47.712 114.127 47.712C116.932 47.712 119.138 47.184 120.746 46.128C122.353 45.072 123.425 43.456 123.961 41.28L127.188 49.7269Z" fill="#1C2024"/>
<path d="M150.557 52.9642L144.506 35.9242L138.454 52.9642H131.457L124.328 33.158H131.704L135.523 45.5722L141.622 28.1002H147.768L153.867 45.6202L159.304 27.9082H166.301L157.555 52.9642H150.557Z" fill="#1C2024"/>
<path d="M189.72 52.9656C187.839 52.9656 186.315 51.4377 186.315 49.5576V49.5576C184.865 50.9656 183.305 52.0056 181.635 52.6776C179.996 53.3176 178.104 53.6376 175.961 53.6376C172.715 53.6376 170.225 52.9816 168.491 51.6696C166.757 50.3256 165.891 48.4216 165.891 45.9576C165.891 43.2056 167.025 41.1576 169.295 39.8136C171.564 38.4696 175.142 37.7336 180.027 37.6056L186.079 37.4616V36.5016C186.079 35.0936 185.575 34.0216 184.566 33.2856C183.557 32.5176 182.123 32.1336 180.264 32.1336C176.702 32.1336 173.533 32.9882 173.533 35.6426H166.961C166.961 32.9454 169.326 30.1816 171.47 28.9656C173.644 27.7496 176.655 27.1416 180.5 27.1416C188.727 27.1416 192.84 30.4376 192.84 37.0296V44.9976V48.2743C192.84 48.3322 192.887 48.3791 192.945 48.3791H195.376V52.9656H189.72ZM186.079 41.6856L180.169 41.8296C177.616 41.8936 175.741 42.2296 174.543 42.8376C173.377 43.4136 172.793 44.2936 172.793 45.4776C172.793 46.5016 173.219 47.2856 174.07 47.8296C174.953 48.3736 176.213 48.6456 177.852 48.6456C179.176 48.6456 180.39 48.4856 181.493 48.1656C182.596 47.8136 183.526 47.3176 184.282 46.6776C185.48 45.7176 186.079 44.5016 186.079 43.0296V41.6856Z" fill="#1C2024"/>
<path d="M198.17 53.0386V18.7666H205.215V53.0386H198.17Z" fill="#1C2024"/>
<path d="M207.738 53.0386V18.7666H214.783V53.0386H207.738Z" fill="#1C2024"/>
<path d="M223.567 42.2379C223.598 43.4859 223.929 44.5899 224.56 45.5499C225.222 46.5099 226.12 47.2619 227.255 47.8059C228.421 48.3499 229.76 48.6219 231.273 48.6219C234.961 48.6219 237.246 47.4859 238.129 45.2139H244.701C244.039 48.1259 242.573 50.2859 240.304 51.6939C238.066 53.1019 234.977 53.8059 231.037 53.8059C226.561 53.8059 223.078 52.6699 220.588 50.3979C218.13 48.1259 216.9 44.9419 216.9 40.8459C216.9 38.2219 217.468 35.8859 218.602 33.8379C219.769 31.7579 221.423 30.1419 223.567 28.9899C225.742 27.8059 228.279 27.2139 231.179 27.2139C235.592 27.2139 238.996 28.3499 241.391 30.6219C243.818 32.8619 245.032 36.0139 245.032 40.0779V42.2379H223.567ZM238.46 37.8699C238.397 36.1099 237.719 34.7499 236.427 33.7899C235.134 32.7979 233.338 32.3019 231.037 32.3019C229.083 32.3019 227.412 32.8299 226.025 33.8859C224.67 34.9419 223.914 36.2699 223.756 37.8699H238.46Z" fill="#1C2024"/>
<path d="M265.796 52.4625C263.589 53.1665 261.273 53.5185 258.846 53.5185C255.725 53.5185 253.456 52.8145 252.038 51.4065C250.619 49.9665 249.91 47.6945 249.91 44.5905V33.3105H245.135V27.9825H249.91V21.3105H256.955V27.9825H265.039V33.3105H256.955V44.3505C256.955 45.5985 257.254 46.5265 257.853 47.1345C258.452 47.7105 259.397 47.9985 260.69 47.9985C262.045 47.9985 263.432 47.7745 264.85 47.3265L265.796 52.4625Z" fill="#1C2024"/>
</svg>
